<svg xmlns="http://www.w3.org/2000/svg" width="20" height="19.988" viewBox="0 0 20 19.988">
  <g id="home_1_" data-name="home (1)" transform="translate(0 -0.16)">
    <path id="Path_10226" data-name="Path 10226" d="M194.593,319.841A2.593,2.593,0,0,0,192,322.434v5.185h5.185v-5.185A2.593,2.593,0,0,0,194.593,319.841Z" transform="translate(-184.593 -307.471)" fill="#8d877f"/>
    <g id="Group_13891" data-name="Group 13891" transform="translate(0 0.16)">
      <path id="Path_10227" data-name="Path 10227" d="M14.167,15.147v5H17.5a2.5,2.5,0,0,0,2.5-2.5v-7.6a1.667,1.667,0,0,0-.469-1.16L12.449,1.231a3.333,3.333,0,0,0-4.71-.185q-.1.089-.185.185L.484,8.884A1.667,1.667,0,0,0,0,10.059v7.588a2.5,2.5,0,0,0,2.5,2.5H5.833v-5a4.167,4.167,0,1,1,8.333,0Z" transform="translate(0 -0.16)" fill="#ff9a33"/>
      <path id="Path_10228" data-name="Path 10228" d="M194.593,319.841A2.593,2.593,0,0,0,192,322.434v5.185h5.185v-5.185A2.593,2.593,0,0,0,194.593,319.841Z" transform="translate(-184.593 -307.631)" fill="#ff9a33"/>
    </g>
  </g>
</svg>
