<svg xmlns="http://www.w3.org/2000/svg" width="24" height="24" viewBox="0 0 24 24">
  <g id="Group_14071" data-name="Group 14071" transform="translate(-1196 -202)">
    <g id="Group_14070" data-name="Group 14070" transform="translate(20 12)">
      <path id="Path_10349" data-name="Path 10349" d="M11.252,8.078v2.86l-1.01-.35c-.51-.18-.82-.35-.82-1.22a1.241,1.241,0,0,1,1.18-1.29Z" transform="translate(1176 190)" fill="#ff9a33"/>
      <path id="Path_10350" data-name="Path 10350" d="M14.58,14.629a1.241,1.241,0,0,1-1.18,1.29h-.65v-2.86l1.01.35C14.27,13.589,14.58,13.759,14.58,14.629Z" transform="translate(1176 190)" fill="#ff9a33"/>
      <path id="Path_10351" data-name="Path 10351" d="M16.19,2H7.81C4.17,2,2,4.17,2,7.81v8.38C2,19.83,4.17,22,7.81,22h8.38C19.83,22,22,19.83,22,16.19V7.81C22,4.17,19.83,2,16.19,2ZM14.26,12a2.484,2.484,0,0,1,1.82,2.63,2.737,2.737,0,0,1-2.68,2.79h-.65V18a.75.75,0,0,1-1.5,0v-.58h-.36a3.036,3.036,0,0,1-2.97-3.09.75.75,0,1,1,1.5,0,1.534,1.534,0,0,0,1.47,1.59h.36V12.53L9.74,12A2.484,2.484,0,0,1,7.92,9.37,2.737,2.737,0,0,1,10.6,6.58h.65V6a.75.75,0,0,1,1.5,0v.58h.36a3.036,3.036,0,0,1,2.97,3.09.75.75,0,1,1-1.5,0,1.534,1.534,0,0,0-1.47-1.59h-.36v3.39Z" transform="translate(1176 190)" fill="#ff9a33"/>
    </g>
    <path id="Path_372" data-name="Path 372" d="M0,0H24V24H0Z" transform="translate(1196 202)" fill="none"/>
  </g>
</svg>
