<svg xmlns="http://www.w3.org/2000/svg" width="64" height="64" viewBox="0 0 64 64">
  <g id="Group_14084" data-name="Group 14084" transform="translate(-465 -235)">
    <g id="ic-sessions" transform="translate(465 235)">
      <g id="Oval" fill="#fff7ef" stroke="#f8e9db" stroke-width="1">
        <circle cx="32" cy="32" r="32" stroke="none"/>
        <circle cx="32" cy="32" r="31.5" fill="none"/>
      </g>
    </g>
    <g id="Group_14089" data-name="Group 14089" transform="translate(-715 49)">
      <g id="Group_14070" data-name="Group 14070" transform="translate(1198 204)">
        <path id="Path_10349" data-name="Path 10349" d="M11.252,8.078v2.86l-1.01-.35c-.51-.18-.82-.35-.82-1.22a1.241,1.241,0,0,1,1.18-1.29Z" transform="translate(1.268 0.837)" fill="#ff9a33"/>
        <path id="Path_10350" data-name="Path 10350" d="M14.58,14.629a1.241,1.241,0,0,1-1.18,1.29h-.65v-2.86l1.01.35C14.27,13.589,14.58,13.759,14.58,14.629Z" transform="translate(2.733 3.162)" fill="#ff9a33"/>
        <path id="Path_10351" data-name="Path 10351" d="M21.866,2H10.134C5.038,2,2,5.038,2,10.134V21.866C2,26.962,5.038,30,10.134,30H21.866C26.962,30,30,26.962,30,21.866V10.134C30,5.038,26.962,2,21.866,2Zm-2.7,14a3.477,3.477,0,0,1,2.548,3.682,3.832,3.832,0,0,1-3.752,3.906h-.91V24.4a1.05,1.05,0,1,1-2.1,0v-.812h-.5a4.251,4.251,0,0,1-4.158-4.326,1.05,1.05,0,1,1,2.1,0,2.147,2.147,0,0,0,2.058,2.226h.5V16.742L12.836,16a3.477,3.477,0,0,1-2.548-3.682A3.832,3.832,0,0,1,14.04,8.412h.91V7.6a1.05,1.05,0,0,1,2.1,0v.812h.5a4.251,4.251,0,0,1,4.158,4.326,1.05,1.05,0,1,1-2.1,0,2.147,2.147,0,0,0-2.058-2.226h-.5v4.746Z" transform="translate(-2 -2)" fill="#ff9a33"/>
      </g>
      <path id="Path_372" data-name="Path 372" d="M0,0H32V32H0Z" transform="translate(1196 202)" fill="none"/>
    </g>
  </g>
</svg>
