<svg xmlns="http://www.w3.org/2000/svg" width="328" height="328" viewBox="0 0 328 328">
  <path id="Path_10414" data-name="Path 10414" d="M248,14C157.541,14,84,87.541,84,178s73.541,164,164,164,164-73.541,164-164S338.459,14,248,14Zm0,72.912a51.445,51.445,0,1,1-51.445,51.445A51.573,51.573,0,0,1,248,86.912ZM158.232,256.436v-7.6a39.709,39.709,0,0,1,39.7-39.7H298.062a39.709,39.709,0,0,1,39.7,39.7v7.6a133.954,133.954,0,0,1-179.531,0Z" transform="translate(-84 -14)" fill="#8d877f" opacity="0.14"/>
</svg>
