<svg xmlns="http://www.w3.org/2000/svg" width="24" height="24" viewBox="0 0 24 24">
  <g id="Group_14244" data-name="Group 14244" transform="translate(-1027 -953)">
    <path id="Path_372" data-name="Path 372" d="M0,0H24V24H0Z" transform="translate(1027 953)" fill="none"/>
    <g id="noun-pages-2135265" transform="translate(941.5 937.5)">
      <path id="Path_10416" data-name="Path 10416" d="M241.5,87.5H228.167a.669.669,0,0,0-.667.667v16a.669.669,0,0,0,.667.667H241.5a.669.669,0,0,0,.667-.667v-16A.669.669,0,0,0,241.5,87.5Z" transform="translate(-134.667 -67.333)" fill="#ff9a33"/>
      <path id="Path_10417" data-name="Path 10417" d="M102.167,18.833v-.667a.669.669,0,0,0-.667-.667H88.167a.669.669,0,0,0-.667.667v16a.669.669,0,0,0,.667.667H91.5v-14a2.006,2.006,0,0,1,2-2Z" fill="#ff9a33"/>
    </g>
  </g>
</svg>
