<svg xmlns="http://www.w3.org/2000/svg" width="20" height="20" viewBox="0 0 20 20">
  <g id="noun-pages-2135265" transform="translate(-87.5 -17.5)">
    <path id="Path_10416" data-name="Path 10416" d="M241.5,87.5H228.167a.669.669,0,0,0-.667.667v16a.669.669,0,0,0,.667.667H241.5a.669.669,0,0,0,.667-.667v-16A.669.669,0,0,0,241.5,87.5Z" transform="translate(-134.667 -67.333)" fill="#8d877f"/>
    <path id="Path_10417" data-name="Path 10417" d="M102.167,18.833v-.667a.669.669,0,0,0-.667-.667H88.167a.669.669,0,0,0-.667.667v16a.669.669,0,0,0,.667.667H91.5v-14a2.006,2.006,0,0,1,2-2Z" fill="#8d877f"/>
  </g>
</svg>
