<svg xmlns="http://www.w3.org/2000/svg" width="89" height="89" viewBox="0 0 89 89">
  <g id="Group_14234" data-name="Group 14234" transform="translate(-9325 188)">
    <g id="Oval" transform="translate(9325 -188)" fill="#fff7ef" stroke="#f8e9db" stroke-width="1">
      <circle cx="44.5" cy="44.5" r="44.5" stroke="none"/>
      <circle cx="44.5" cy="44.5" r="44" fill="none"/>
    </g>
    <g id="noun-ticket-4870333" transform="translate(9347.25 -156.016)">
      <path id="Path_10415" data-name="Path 10415" d="M124.608,131.6H81.495a.692.692,0,0,0-.693.693v6.634a.7.7,0,0,0,.657.693,4.235,4.235,0,0,1,0,8.46.7.7,0,0,0-.657.693v6.634a.692.692,0,0,0,.693.693h43.113a.692.692,0,0,0,.693-.693V132.292a.692.692,0,0,0-.693-.693ZM94.241,155.176a.758.758,0,0,1-.042.231.69.69,0,0,1-1.3,0,.755.755,0,0,1-.042-.231V154.02a.693.693,0,1,1,1.387,0Zm0-4.618a.693.693,0,1,1-1.387,0v-2.163a.693.693,0,1,1,1.387,0Zm0-5.626a.693.693,0,1,1-1.387,0v-2.163a.693.693,0,1,1,1.387,0Zm0-5.626a.693.693,0,0,1-1.387,0v-2.163a.693.693,0,1,1,1.387,0Zm0-5.626a.693.693,0,1,1-1.387,0v-1.156a.756.756,0,0,1,.042-.231.69.69,0,0,1,1.3,0,.755.755,0,0,1,.042.231Zm17.812,15.14-3.569-2.316-3.569,2.316,1.1-4.11-3.31-2.677,4.249-.222,1.526-3.971,1.526,3.971,4.249.222-3.305,2.677,1.1,4.11Z" transform="translate(-80.802 -131.599)" fill="#f0142f"/>
    </g>
  </g>
</svg>
