<svg xmlns="http://www.w3.org/2000/svg" width="24" height="24" viewBox="0 0 24 24">
  <g id="Group_14076" data-name="Group 14076" transform="translate(-1172 -483.5)">
    <path id="Path_372" data-name="Path 372" d="M0,0H24V24H0Z" transform="translate(1172 483.5)" fill="none"/>
    <path id="Path_10354" data-name="Path 10354" d="M20.091,9.218c-1.809,0-2.549-1.279-1.649-2.849a1.9,1.9,0,0,0-.7-2.589l-1.729-.99a1.668,1.668,0,0,0-2.279.6l-.11.19c-.9,1.569-2.379,1.569-3.288,0l-.11-.19a1.64,1.64,0,0,0-2.259-.6l-1.729.99a1.907,1.907,0,0,0-.7,2.6c.91,1.559.17,2.839-1.639,2.839a1.9,1.9,0,0,0-1.9,1.9v1.759a1.9,1.9,0,0,0,1.9,1.9c1.809,0,2.549,1.279,1.639,2.849a1.9,1.9,0,0,0,.7,2.589l1.729.99a1.668,1.668,0,0,0,2.279-.6l.11-.19c.9-1.569,2.379-1.569,3.288,0l.11.19a1.668,1.668,0,0,0,2.279.6l1.729-.99a1.9,1.9,0,0,0,.7-2.589c-.91-1.569-.17-2.849,1.639-2.849a1.9,1.9,0,0,0,1.9-1.9V11.117A1.92,1.92,0,0,0,20.091,9.218ZM12,15.245A3.248,3.248,0,1,1,15.243,12,3.255,3.255,0,0,1,12,15.245Z" transform="translate(1172 483.438)" fill="#8d877f"/>
  </g>
</svg>
