<svg xmlns="http://www.w3.org/2000/svg" width="24" height="24" viewBox="0 0 24 24">
  <g id="Group_14091" data-name="Group 14091" transform="translate(-1192 -269)">
    <g id="noun-rocket-2217227" transform="translate(1108.879 258.417)">
      <path id="Path_10407" data-name="Path 10407" d="M88.865,384.639a.462.462,0,0,1-.462-.462,12.931,12.931,0,0,1,.194-2.042L87.285,380.8a11.108,11.108,0,0,0-2.163,6.66.462.462,0,0,0,.462.462,11.108,11.108,0,0,0,6.66-2.163l-1.337-1.313a16.769,16.769,0,0,1-2.042.194Z" transform="translate(0 -355.316)" fill="#ff9a33"/>
      <path id="Path_10408" data-name="Path 10408" d="M108.189,25.35l-.042-.105c4.707-4.98,4.623-10.129,4.413-11.873a.8.8,0,0,0-.714-.714c-1.744-.21-6.893-.294-11.873,4.413l-.084-.021a4.306,4.306,0,0,0-4.833.862l-1.828,1.828a.825.825,0,0,0,.231,1.345l2.963,1.366-1.009,1.6a.99.99,0,0,0,.147,1.219l4.413,4.413a1.013,1.013,0,0,0,1.219.147l1.6-1.009,1.366,2.963a.828.828,0,0,0,1.345.231l1.828-1.828a4.277,4.277,0,0,0,.861-4.833Zm-4.182-4.119a2.244,2.244,0,1,1,3.173,0A2.271,2.271,0,0,1,104.007,21.232Z" transform="translate(-7.513 0)" fill="#ff9a33"/>
    </g>
    <path id="Path_372" data-name="Path 372" d="M0,0H24V24H0Z" transform="translate(1192 269)" fill="none"/>
  </g>
</svg>
