<svg xmlns="http://www.w3.org/2000/svg" width="64" height="64" viewBox="0 0 64 64">
  <g id="Group_14084" data-name="Group 14084" transform="translate(-465 -235)">
    <g id="ic-sessions" transform="translate(465 235)">
      <g id="Oval" fill="#fff7ef" stroke="#f8e9db" stroke-width="1">
        <circle cx="32" cy="32" r="32" stroke="none"/>
        <circle cx="32" cy="32" r="31.5" fill="none"/>
      </g>
    </g>
    <g id="Group_14092" data-name="Group 14092" transform="translate(-711 -18)">
      <g id="noun-rocket-2217227" transform="translate(1194 271)">
        <path id="Path_10407" data-name="Path 10407" d="M90.36,386.174a.646.646,0,0,1-.646-.646,18.1,18.1,0,0,1,.272-2.857L88.149,380.8c-2.687,3.164-2.994,7.688-3.028,9.321a.646.646,0,0,0,.646.646c1.633-.034,6.157-.34,9.321-3.028L93.217,385.9a23.466,23.466,0,0,1-2.857.272Z" transform="translate(-85.121 -362.745)" fill="#ff9a33"/>
        <path id="Path_10408" data-name="Path 10408" d="M114.268,30.452l-.059-.147c6.588-6.971,6.471-14.176,6.176-16.618a1.126,1.126,0,0,0-1-1c-2.441-.294-9.647-.412-16.617,6.176l-.118-.03a6.026,6.026,0,0,0-6.765,1.206L93.327,22.6a1.154,1.154,0,0,0,.324,1.882L97.8,26.393l-1.412,2.235a1.386,1.386,0,0,0,.206,1.706l6.176,6.176a1.418,1.418,0,0,0,1.706.206L106.71,35.3l1.912,4.147a1.159,1.159,0,0,0,1.882.324l2.559-2.559a5.986,5.986,0,0,0,1.206-6.765Zm-5.853-5.765a3.14,3.14,0,1,1,4.441,0A3.178,3.178,0,0,1,108.416,24.687Z" transform="translate(-92.498 -12.583)" fill="#ff9a33"/>
      </g>
      <path id="Path_372" data-name="Path 372" d="M0,0H32V32H0Z" transform="translate(1192 269)" fill="none"/>
    </g>
  </g>
</svg>
