<svg xmlns="http://www.w3.org/2000/svg" width="20" height="23.523" viewBox="0 0 20 23.523">
  <path id="Path_10353" data-name="Path 10353" d="M17.955,2h-8.9C4.607,2,3.5,3.189,3.5,7.933V21.188c0,3.131,1.719,3.873,3.8,1.636l.012-.012a2.07,2.07,0,0,1,3.272.177l1.189,1.589a2.046,2.046,0,0,0,3.449,0l1.189-1.589a2.069,2.069,0,0,1,3.284-.177c2.1,2.237,3.8,1.495,3.8-1.636V7.933C23.512,3.189,22.405,2,17.955,2ZM9.974,7.886A1.177,1.177,0,1,1,8.8,9.063,1.181,1.181,0,0,1,9.974,7.886Zm7.063,8.24a1.177,1.177,0,1,1,1.177-1.177A1.173,1.173,0,0,1,17.037,16.126ZM18.1,8.58,10.174,16.5a.881.881,0,0,1-1.248,0,.888.888,0,0,1,0-1.248l7.922-7.922A.882.882,0,1,1,18.1,8.58Z" transform="translate(-3.5 -2)" fill="#8d877f"/>
</svg>
