<svg xmlns="http://www.w3.org/2000/svg" width="24" height="24" viewBox="0 0 24 24">
  <g id="Group_14075" data-name="Group 14075" transform="translate(-1181 -430)">
    <path id="noun-support-4541147" d="M187.523,98.729V98.32a7.329,7.329,0,0,0-3.874-6.4,8.079,8.079,0,0,0-7.748,0,7.33,7.33,0,0,0-3.874,6.4v.409a3.038,3.038,0,0,0-1.62,1.025,2.8,2.8,0,0,0-.631,1.753v3.516a2.865,2.865,0,0,0,1.514,2.5,3.157,3.157,0,0,0,3.028,0,2.865,2.865,0,0,0,1.514-2.5v-3.516a2.8,2.8,0,0,0-.631-1.753,3.039,3.039,0,0,0-1.62-1.025V98.32a5.86,5.86,0,0,1,3.1-5.114,6.458,6.458,0,0,1,6.195,0,5.86,5.86,0,0,1,3.1,5.114v.409a3.037,3.037,0,0,0-1.62,1.025,2.8,2.8,0,0,0-.631,1.753v3.516a2.8,2.8,0,0,0,.631,1.753,3.036,3.036,0,0,0,1.62,1.025v.324a.906.906,0,0,1-.285.655,1,1,0,0,1-.686.272h-4.329a1.214,1.214,0,0,0-1.933.169,1.1,1.1,0,0,0,0,1.143,1.214,1.214,0,0,0,1.933.169H185a2.592,2.592,0,0,0,1.784-.706,2.354,2.354,0,0,0,.74-1.7V107.8h0a3.037,3.037,0,0,0,1.62-1.025,2.8,2.8,0,0,0,.631-1.753v-3.517a2.8,2.8,0,0,0-.631-1.753,3.038,3.038,0,0,0-1.62-1.025Z" transform="translate(1013.226 341.065)" fill="#ff9a33"/>
    <path id="Path_372" data-name="Path 372" d="M0,0H24V24H0Z" transform="translate(1181 430)" fill="none"/>
  </g>
</svg>
