<svg xmlns="http://www.w3.org/2000/svg" width="64" height="64" viewBox="0 0 64 64">
  <g id="Group_14084" data-name="Group 14084" transform="translate(-465 -235)">
    <g id="ic-sessions" transform="translate(465 235)">
      <g id="Oval" fill="#fff7ef" stroke="#f8e9db" stroke-width="1">
        <circle cx="32" cy="32" r="32" stroke="none"/>
        <circle cx="32" cy="32" r="31.5" fill="none"/>
      </g>
    </g>
    <g id="Group_14083" data-name="Group 14083" transform="translate(-688 -136)">
      <path id="Icon_awesome-user-circle" data-name="Icon awesome-user-circle" d="M14,.562a14,14,0,1,0,14,14A14,14,0,0,0,14,.562Zm0,5.419A4.968,4.968,0,1,1,9.032,10.95,4.968,4.968,0,0,1,14,5.982ZM14,25.4a10.818,10.818,0,0,1-8.27-3.85,6.294,6.294,0,0,1,5.56-3.376,1.381,1.381,0,0,1,.4.062,7.474,7.474,0,0,0,2.309.39,7.446,7.446,0,0,0,2.309-.39,1.381,1.381,0,0,1,.4-.062,6.294,6.294,0,0,1,5.56,3.376A10.818,10.818,0,0,1,14,25.4Z" transform="translate(1171 388.438)" fill="#ff9a33"/>
      <path id="Path_372" data-name="Path 372" d="M0,0H32V32H0Z" transform="translate(1169 387)" fill="none"/>
    </g>
  </g>
</svg>
