<svg xmlns="http://www.w3.org/2000/svg" xmlns:xlink="http://www.w3.org/1999/xlink" width="191.691" height="120.742" viewBox="0 0 191.691 120.742">
  <defs>
    <linearGradient id="linear-gradient" x1="0.5" y1="0.22" x2="0.5" y2="0.78" gradientUnits="objectBoundingBox">
      <stop offset="0" stop-color="#138707" stop-opacity="0.2"/>
      <stop offset="1" stop-color="#fff" stop-opacity="0"/>
    </linearGradient>
  </defs>
  <g id="Group_14110" data-name="Group 14110" transform="translate(-319.383 -1120.258)">
    <rect id="Line" width="190" height="1" transform="translate(320.001 1240)" fill="#138707" opacity="0.39"/>
    <g id="Chart" transform="translate(320 1121)">
      <path id="Path_2" data-name="Path 2" d="M0,34.692s7.414-2.262,15.843,3.172C31.875,48.2,32.789,29.273,38.734,20.148c5.439-8.348,9.943-3.255,16,6.955,4.466,7.53,10.975,20.17,17.716,18.135,6.162-1.86,10.53-16.685,19.071-20.455,6.769-2.988,12.27,5.221,20.065,2.32,10.574-3.935,12.149-19.01,19.707-19.01,9.328,0,15.169,26.9,23.655,26.9,8.435,0,12.775-26.592,22-18.519C184,22.645,188.077,0,188.077,0" transform="translate(1.256 1)" fill="none" stroke="#138707" stroke-linecap="round" stroke-linejoin="round" stroke-width="3"/>
      <path id="Path_398" data-name="Path 398" d="M3140.733,1239.481s4.554-2.535,7.727,0a20.7,20.7,0,0,0,7.993,4.309c3.176,1.015,4.535,2.667,7.161,2.028s7.91-5.89,8.5-8.624,2.96-10.487,5.781-12.911,5.617-5.854,7.784-2.565,9.539,13.791,9.539,13.791,6.773,11.01,9.236,12.471,4.983,3.291,6.67,2.65,4.953-2.517,6.283-4.81,6.515-14.133,12.258-14.942a25.963,25.963,0,0,1,11.564,1.5s1.535-1,5.026,0,6.074,2.917,9.2-1.5,8.705-16.264,12.043-16.358,7.224.054,9.549,4.279,9.427,15.849,12.967,18.4,6.08,2.282,9.249-1.686,6.627-12.8,9.334-13.791,4.33-.854,6.115,0,3.3,2.239,5.635,0,7.265-16.831,7.265-16.831v119.544h-190v-84.95Z" transform="translate(-3137.611 -1204.887)" fill="url(#linear-gradient)"/>
    </g>
  </g>
</svg>
